<?xml version="1.0" encoding="utf-8"?>
<!-- Generator: Adobe Illustrator 22.1.0, SVG Export Plug-In . SVG Version: 6.00 Build 0)  -->
<svg version="1.1" id="Layer_1" xmlns="http://www.w3.org/2000/svg" xmlns:xlink="http://www.w3.org/1999/xlink" x="0px" y="0px"
	 viewBox="0 0 706 450" style="enable-background:new 0 0 706 450;" xml:space="preserve">
<style type="text/css">
	.st0{fill:#FCF7F0;}
	.st1{fill:#FF5F00;}
	.st2{fill:#EB001B;}
	.st3{fill:#F79E1B;}
</style>
<path class="st0" d="M671.4,450H34.6C15.5,450,0,434.5,0,415.4V34.6C0,15.5,15.5,0,34.6,0h636.8C690.5,0,706,15.5,706,34.6v380.8
	C706,434.5,690.5,450,671.4,450z"/>
<g id="_Group_">
	<rect x="279.9" y="105" class="st1" width="146.5" height="239"/>
	<path id="_Path_" class="st2" d="M294.7,224.5c0-46.6,21.3-90.6,57.8-119.5c-66-51.9-161.5-40.5-213.4,25.5S98.6,292.1,164.6,344
		c26.8,21.1,60,32.6,94.2,32.5c34,0,67-11.4,93.7-32.5C316,315.1,294.7,271.1,294.7,224.5z"/>
	<path class="st3" d="M598.7,224.5c-0.1,83.9-68.2,151.9-152.2,151.8c-33.9,0-66.9-11.4-93.6-32.3c66-52.2,77.2-148,25-214
		c-7.3-9.3-15.7-17.7-25-25c66.1-51.8,161.6-40.2,213.4,25.9C587.3,157.6,598.6,190.6,598.7,224.5z"/>
</g>
</svg>
