<?xml version="1.0" encoding="utf-8"?>
<!-- Generator: Adobe Illustrator 22.1.0, SVG Export Plug-In . SVG Version: 6.00 Build 0)  -->
<svg version="1.1" id="Layer_1" xmlns="http://www.w3.org/2000/svg" xmlns:xlink="http://www.w3.org/1999/xlink" x="0px" y="0px"
	 viewBox="0 0 706 450" style="enable-background:new 0 0 706 450;" xml:space="preserve">
<style type="text/css">
	.st0{fill:#E4590E;}
	.st1{fill:none;stroke:#E4590E;stroke-width:21;stroke-miterlimit:10;}
</style>
<g>
	<path class="st0" d="M671.4,16c10.3,0,18.6,8.3,18.6,18.6v380.8c0,10.3-8.3,18.6-18.6,18.6H34.6c-10.3,0-18.6-8.3-18.6-18.6V34.6
		C16,24.3,24.3,16,34.6,16H671.4 M671.4,0H34.6C15.5,0,0,15.5,0,34.6v380.8C0,434.5,15.5,450,34.6,450h636.8
		c19.1,0,34.6-15.5,34.6-34.6V34.6C706,15.5,690.5,0,671.4,0L671.4,0z"/>
</g>
<g>
	<path class="st0" d="M353,124c55.7,0,101,45.3,101,101s-45.3,101-101,101s-101-45.3-101-101S297.3,124,353,124 M353,103
		c-67.4,0-122,54.6-122,122s54.6,122,122,122s122-54.6,122-122S420.4,103,353,103L353,103z"/>
</g>
<g>
	<line class="st1" x1="430.5" y1="145" x2="275.5" y2="300"/>
</g>
</svg>
