<?xml version="1.0" encoding="utf-8"?>
<!-- Generator: Adobe Illustrator 22.1.0, SVG Export Plug-In . SVG Version: 6.00 Build 0)  -->
<svg version="1.1" id="Layer_1" xmlns="http://www.w3.org/2000/svg" xmlns:xlink="http://www.w3.org/1999/xlink" x="0px" y="0px"
	 viewBox="0 0 316.8 316.8" style="enable-background:new 0 0 316.8 316.8;" xml:space="preserve">
<style type="text/css">
	.st0{fill:#FCF7F0;}
	.st1{fill:#E3590E;}
</style>
<rect class="st0" width="316.8" height="316.8"/>
<g>
	<g>
		<g>
			<path class="st1" d="M131,216.5c9.7,14,7.9,27.9,6.6,33.7c-0.5,1.6-1.9,2.9-3.7,2.6c-8-0.7-30.2-4-40.6-18.9
				c-9.2-13.2-6.9-31.2-5-40.3c0.5-2.4,3.4-3.6,5.5-2.1C104.7,199.7,119.7,200.2,131,216.5z"/>
		</g>
		<g>
			<path class="st1" d="M164,222.6c-14,9.7-17.2,23.2-18.1,29.3c-0.2,1.7,0.9,3.2,2.5,3.7c7.7,2.2,29.5,6.9,44.5-3.4
				c13.2-9.2,17.4-26.8,18.8-35.9c0.3-2.5-2-4.5-4.4-3.9C194.3,216,180.3,211.2,164,222.6z"/>
		</g>
		<g>
			<path class="st1" d="M140.2,165.8c9.7,14,7.9,27.9,6.6,33.7c-0.5,1.6-1.9,2.9-3.7,2.6c-8-0.7-30.2-4-40.6-18.9
				c-9.2-13.2-6.9-31.2-5-40.3c0.5-2.4,3.4-3.6,5.5-2.1C113.9,149.2,128.9,149.7,140.2,165.8z"/>
		</g>
		<g>
			<path class="st1" d="M173.2,172c-14,9.7-17.2,23.2-18.1,29.3c-0.2,1.7,0.9,3.2,2.5,3.7c7.7,2.2,29.5,6.9,44.5-3.4
				c13.2-9.2,17.4-26.8,18.8-35.9c0.3-2.5-2-4.5-4.4-3.9C203.5,165.5,189.5,160.7,173.2,172z"/>
		</g>
		<g>
			<path class="st1" d="M149.4,115.3c9.7,14,7.9,27.9,6.6,33.7c-0.5,1.6-1.9,2.9-3.7,2.6c-8-0.7-30.2-4-40.6-18.9
				c-9.2-13.2-6.9-31.2-5-40.3c0.5-2.4,3.4-3.6,5.5-2.1C123.2,98.6,138.1,99.2,149.4,115.3z"/>
		</g>
		<g>
			<path class="st1" d="M182.4,121.5c-14,9.7-17.2,23.2-18.1,29.3c-0.2,1.7,0.9,3.2,2.5,3.7c7.7,2.2,29.5,6.9,44.5-3.4
				c13.2-9.2,17.4-26.8,18.8-35.9c0.3-2.5-2-4.5-4.4-3.9C212.8,115,198.7,110.2,182.4,121.5z"/>
		</g>
		<g>
			<path class="st1" d="M190.7,90.6c-2.5,14.2-14.8,24.6-21.2,29.3c-2.1,1.6-5.2,0.9-6.8-1.2c-4.3-6.5-12.1-20.6-9.4-34.9
				c2.5-14.2,14.8-24.6,21.2-29.3c2.1-1.6,5.2-0.9,6.8,1.2C185.8,62.3,193.4,76.2,190.7,90.6z"/>
		</g>
		<g>
			<path class="st1" d="M178.2,53.6c-1.3-0.2-2.6,0.1-3.7,0.8c-6.4,4.7-18.4,15.1-21.2,29.3c-2.5,14.2,5,28.2,9.4,34.9
				c0.7,1.1,1.8,1.8,3.1,2L178.2,53.6z"/>
		</g>
	</g>
</g>
</svg>
