<?xml version="1.0" encoding="utf-8"?>
<!-- Generator: Adobe Illustrator 22.1.0, SVG Export Plug-In . SVG Version: 6.00 Build 0)  -->
<svg version="1.1" id="Layer_1" xmlns="http://www.w3.org/2000/svg" xmlns:xlink="http://www.w3.org/1999/xlink" x="0px" y="0px"
	 viewBox="0 0 316.8 316.8" style="enable-background:new 0 0 316.8 316.8;" xml:space="preserve">
<style type="text/css">
	.st0{fill:#FCF7F0;}
	.st1{fill:#F5DAAD;}
	.st2{fill:#F3AE42;}
</style>
<rect class="st0" width="316.8" height="316.8"/>
<g>
	<path class="st1" d="M202.2,85.9c-13.8-7-29.9-4.9-41.2,4.2c-3.7,2.9-8.3,4.5-12.9,4.1c-28.5-2.2-56.8,13-69.6,40.8
		c-15.7,33.8-2,74.5,30.9,92c21.7,11.6,46.7,10.6,66.7-0.2c3.7-2,8-2.7,12.2-2.2c21,2.7,42.4-7.8,52.6-27.7
		c10.9-21.3,5.4-46.7-11.7-61.9c-4-3.6-6.2-8.7-6.1-14C223.5,106.8,215.8,92.8,202.2,85.9z"/>
	<circle class="st2" cx="160.8" cy="156.3" r="33.3"/>
</g>
</svg>
