<?xml version="1.0" encoding="utf-8"?>
<!-- Generator: Adobe Illustrator 22.1.0, SVG Export Plug-In . SVG Version: 6.00 Build 0)  -->
<svg version="1.1" id="Layer_1" xmlns="http://www.w3.org/2000/svg" xmlns:xlink="http://www.w3.org/1999/xlink" x="0px" y="0px"
	 viewBox="0 0 706 450" style="enable-background:new 0 0 706 450;" xml:space="preserve">
<style type="text/css">
	.st0{fill:#FCF7F0;}
	.st1{fill:#1A1F71;}
</style>
<path class="st0" d="M671.9,450H35.1C16,450,0.5,434.5,0.5,415.4V34.6C0.5,15.5,16,0,35.1,0h636.8c19.1,0,34.6,15.5,34.6,34.6v380.8
	C706.5,434.5,691,450,671.9,450z"/>
<path class="st1" d="M278.1,142l-70.2,167h-45.6l-34.4-133.5c-2.2-8.2-3.9-11.2-10.3-14.6c-13.6-6.4-27.9-11.2-42.6-14.2l0.9-4.7
	h73.6c10-0.1,18.5,7.3,19.8,17.2l18.1,96.9L232,142.4h46.1V142z M457.2,254.3c0-43.9-61.1-46.5-60.7-66.3c0-6,6-12.5,18.5-14.2
	c14.6-1.3,29.3,1.2,42.6,7.3l7.7-35.3c-12.9-4.9-26.6-7.4-40.5-7.3c-42.6,0-72.8,22.8-73.2,55.1c-0.4,24.1,21.5,37.5,37.9,45.6
	c16.4,8.2,22.4,13.3,22.4,20.7c0,11.2-13.3,16.4-25.8,16.4c-15.5,0.4-30.8-3.3-44.3-10.8l-7.7,36.6c9.9,4.7,28.8,8.6,48.2,9
	C427,311.6,456.7,289.2,457.2,254.3 M570,309h40l-34.9-167h-37c-8-0.1-15.4,4.7-18.5,12.1l-65,155h45.2l9-25h55.5L570,309z
	 M521.7,249.6l22.8-62.9l12.9,62.9H521.7z M339.7,142l-35.7,167h-43l35.7-167H339.7z"/>
</svg>
