<?xml version="1.0" encoding="utf-8"?>
<!-- Generator: Adobe Illustrator 22.1.0, SVG Export Plug-In . SVG Version: 6.00 Build 0)  -->
<svg version="1.1" id="Layer_1" xmlns="http://www.w3.org/2000/svg" xmlns:xlink="http://www.w3.org/1999/xlink" x="0px" y="0px"
	 viewBox="0 0 7220 1798.7" style="enable-background:new 0 0 7220 1798.7;" xml:space="preserve">
<style type="text/css">
	.st0{fill:#4F1D28;}
	.st1{fill:#991119;}
	.st2{fill:#F4AF42;}
	.st3{fill:#E4590E;}
	.st4{fill:#A3E5B1;}
</style>
<g>
	<g>
		<g>
			<path class="st0" d="M1830,955.4c0,16.7,2.2,27.2,6.7,31.4c3.3,6.4,12.9,9.2,28.8,8.3h96.3c32.7,0.9,55.4-3.6,68.1-13.5
				c11.9-9.4,20.3-29.5,25.2-60.3l6.1-31.4c5.7-6,14-9,25-9c11,0,18.5,3.4,22.5,10.3c-2.4,42.7-3.6,89.5-3.6,140.4
				c0,50,1.2,95.5,3.6,136.5c-4.1,5.1-11.6,7.7-22.5,7.7c-11,0.9-19.3-1.3-25-6.4l-6.1-31.4c-4.9-30.8-13.3-50.9-25.2-60.3
				c-12.7-9-35.4-13.5-68.1-13.5h-96.3c-16,0-25.6,1.7-28.8,5.1c-4.5,4.7-6.7,16.2-6.7,34.6v176.9c-0.9,57.7,3,94.9,11.7,111.6
				c8.2,15.8,25.8,25.4,52.8,28.8l46.6,6.4c5.1,4.7,7.7,12.2,7.7,22.4c0,10.7-2.6,18.6-7.7,23.7c-77.3-2.6-145.5-3.8-204.4-3.8
				c-57.3,0-124.1,1.3-200.6,3.8c-5.1-5.1-7.7-13-7.7-23.7c0-10.2,2.6-17.7,7.7-22.4l42.3-6.4c29-3.4,47.3-13,54.7-28.8
				c6.6-16.7,10-53.8,10-111.5V792.5c0-59.4-3.3-97.4-10-114.1c-7.5-16.7-25.7-26.3-54.7-28.8l-25.5-3.8c-5.1-5.1-7.7-13.4-7.7-25
				c0-10.7,3.4-17.7,10.2-21.1c28.2,1.7,57.4,2.6,87.7,2.6c30.7,0.9,61.5,1.3,92.2,1.3h267.9c89.3,0,146.6-1.3,171.9-3.8
				c0,35,1,103.3,3.1,204.8c-3.7,6.8-10.1,10.3-19.1,10.3c-11.1,1.7-20.7,0-28.9-5.1c-12.7-52.7-25-87-36.9-102.8
				c-9.8-14.1-24.8-25.1-44.9-32.8c-19.7-6.8-45.7-10.3-78.1-10.3h-98.4c-19.3,0-31,2.1-35,6.4c-5.4,6-7.6,21.9-6.8,47.6V955.4z"/>
			<path class="st0" d="M2496.4,1488.6c-77,0-143-22.8-198-68.6c-56.7-44.4-85.7-111.7-86.9-201.9c2.1-95.3,31.9-167.9,89.4-217.9
				c57.5-49.1,125.2-73.7,203-73.7c77.4,0,144,23.3,199.9,69.8c55,47,83.4,116.9,85,209.6c-0.8,95.7-29.6,166.2-86.3,211.5
				C2646.6,1464.8,2577.9,1488.6,2496.4,1488.6z M2496.4,986.7c-28.5,0-52.1,15.4-70.7,46.2c-20.7,32.5-31,84.7-31,156.6
				c0,69.3,10.8,125.8,32.3,169.5c19.4,45.4,47.4,68.5,83.8,69.3c36.4-0.8,61.8-20.5,76.3-59.1c12.4-36.8,18.6-85,18.6-144.4
				c-0.8-66.8-10.1-122.4-27.9-166.9c-8.3-22.7-18.8-40.2-31.7-52.6C2532.4,992.9,2515.8,986.7,2496.4,986.7z"/>
			<path class="st0" d="M3173.8,1488.6c-77,0-143-22.8-198-68.6c-56.7-44.4-85.7-111.7-86.9-201.9c2.1-95.3,31.9-167.9,89.4-217.9
				c57.5-49.1,125.2-73.7,203-73.7c77.4,0,144,23.3,199.9,69.8c55,47,83.4,116.9,85,209.6c-0.8,95.7-29.6,166.2-86.3,211.5
				C3324,1464.8,3255.3,1488.6,3173.8,1488.6z M3173.8,986.7c-28.5,0-52.1,15.4-70.7,46.2c-20.7,32.5-31,84.7-31,156.6
				c0,69.3,10.8,125.8,32.3,169.5c19.4,45.4,47.4,68.5,83.8,69.3c36.4-0.8,61.8-20.5,76.3-59.1c12.4-36.8,18.6-85,18.6-144.4
				c-0.8-66.8-10.1-122.4-27.9-166.9c-8.3-22.7-18.8-40.2-31.7-52.6C3209.8,992.9,3193.2,986.7,3173.8,986.7z"/>
			<path class="st0" d="M4119.9,1255.5c0,60.4,2.5,101.3,7.5,122.7c4.5,21.8,12.7,32.3,24.4,31.5c20.3,0,40.2-3.6,59.7-10.8
				c8.2,6.3,12.3,15,12.3,25.9c0,12.2-3.4,22.2-10.3,29.7c-31.6,2.1-61.5,5.3-89.7,9.5c-28.6,5.1-53.4,10.5-74.3,16.5
				c-44.8,13.1-69,20-72.4,20.9c-10.7-0.9-18.2-7-22.4-18.6l3.7-40.4c-1.7-10.7-5.4-14.1-11.2-10.3c-22,14.5-44.5,27.1-67.7,37.8
				c-22.8,11.5-46,17.7-69.6,18.6c-72.9-1.7-131.1-27.5-174.6-77.5c-44.7-48.3-67.7-108.7-69-181.4c1.2-94.4,31.1-168.3,89.5-221.7
				c56.8-53.4,128-80.5,213.8-81.4c31.5,0,55.7,2.1,72.7,6.4c8.3-5.1,12.4-13.2,12.4-24.4V740c0-25.2-0.8-44-2.5-56.4
				c-3.3-10.3-11-19-23-26.3l-21.8-12.8c-4.3-4.3-6.4-10.9-6.4-19.9c0-8.5,2.1-15.2,6.4-19.9c61.4-16.2,126.6-40.6,195.4-73.1
				c9.1,0,16.2,3,21.2,8.9c-2.7,49.1-4.1,113-4.1,191.7V1255.5z M3954.7,1080.6c0-20.1-2.9-35.1-8.7-45
				c-17-30.9-41.3-47.2-72.8-48.9c-33.2,0-62.4,17.2-87.7,51.4c-26.6,34.3-40.2,86.6-41.1,156.9c0,46.3,11,91.5,33,135.7
				c11.2,20.1,26.1,36.9,44.8,50.2c17.8,13.7,39.6,20.6,65.3,20.6c17.8,0,35.3-5.1,52.3-15.4c7.5-5.1,12-12.2,13.7-21.2
				c0.8-7.7,1.2-17.4,1.2-28.9V1080.6z"/>
			<path class="st0" d="M4377,816.3c1.3-63.7-1.2-104.7-7.5-123.1c-6.6-18.4-22.8-28.4-48.5-30.1l-34.2-5.8c-6-5.1-9-13.4-9-25
				c0-10.3,3.8-17.1,11.5-20.5c92.3-7.3,197.4-11.3,315.4-12.2c112.6,0.9,195.6,16.6,249,47.4c74.9,44.4,112.4,109.1,112.4,194
				c0,29-3.9,54-11.8,74.9c-9.1,20.9-20.1,39.3-32.9,55.1c-12.8,14.9-27.3,27.5-43.5,37.8c-15.3,11.5-30.8,21.1-46.6,28.8
				c-12,5.6-14.3,15.2-6.8,28.8c77.4,170.8,143.2,280.1,197.4,327.9c17,13.2,33.1,22.4,48.4,27.5c14.9,5.5,27.1,8.8,36.6,9.6
				c5.9,3.5,9.2,8.7,10.1,15.6c0,7.4-1.7,13.6-5.1,18.8c-11.2,3.5-25.1,6.1-41.6,7.8c-17.8,2.6-37.5,3.9-59,3.9
				c-112.6,0-194.8-45.9-246.6-137.8c-38.9-67.9-72-135.7-99.4-203.2c-14.1-31.6-36.4-47-67.1-46.2c-20.3,0-33.5,1.3-39.8,3.8
				c-5.8,3.8-8.3,12.2-7.4,25v161.6c-0.9,57.7,2.9,94.5,11.2,110.3c8.7,17.5,26.5,27.6,53.4,30.1l34.8,6.4
				c5.1,3.8,7.7,10.9,7.7,21.1c0,11.5-2.6,19.9-7.7,25c-65.4-2.6-127.7-3.8-186.9-3.8c-60.4,0-122.3,1.3-185.6,3.8
				c-5.6-5.1-8.3-13.4-8.3-25c0-10.2,2.8-17.3,8.3-21.1l34.2-6.4c29-2.6,47.3-12.6,54.7-30.1c6.6-15.8,10-52.6,10-110.3V816.3z
				 M4551.2,983c-0.9,20.9,3.3,34.6,12.4,41c8.7,6.8,30.9,9.8,66.5,9c22.8,0,41.8-3.4,57.2-10.3c15.3-5.6,28.6-14.3,39.8-26.3
				c11.6-11.5,22.2-28.6,31.7-51.3c9.1-22.6,13.7-52.8,13.7-90.4c-3.3-126.9-58.8-191.9-166.5-194.9c-24.4-0.8-39.4,2.4-44.7,9.6
				c-6.6,7.7-9.9,26.9-9.9,57.7V983z"/>
			<path class="st0" d="M5316.6,1159.2c-13.7,0-22.2,0.9-25.5,2.6c-4.6,3.4-6.8,10.5-6.8,21.2c0,50.4,15.3,94.4,46,132
				c30.6,40.6,75.1,61.3,133.5,62.2c18.6,0.9,38.8-3.2,60.6-12.2c21.5-8.5,40.6-27.4,57.6-56.4c8.3-1.7,15.7,0,22.3,5.1
				c7,5.5,10.5,13.9,10.5,25c-27.3,54.3-61.3,92.7-101.8,115.3c-40.5,23.1-80.9,34.6-121,34.6c-85.3-1.7-150.5-28.8-195.6-81.4
				c-45.5-50.8-68.3-113-68.3-186.5c0.8-85,26.9-155.1,78.2-210.2c50.1-55.1,115.4-83.1,196.1-84c66.2,0.9,116.7,19.2,151.5,55.1
				c34.8,36.7,52.1,81.4,52.1,133.9c0,12.4-2.7,22.4-8,30.1c-5.8,9-18.4,13.5-37.7,13.5H5316.6z M5400.5,1101.5
				c19.5,0.9,36.8-3.2,52.2-12.2c5.8-5.1,8.7-15.2,8.7-30.1c0-22.6-5.6-40.6-16.8-53.9c-11.6-12.4-28.4-18.6-50.3-18.6
				c-28.2,0.9-51.9,11.6-71.1,32.1c-20.9,19.2-31.4,40.2-31.4,62.8c0,8.6,5.1,13.7,15.4,15.4c9,3,23.9,4.5,44.9,4.5H5400.5z"/>
			<path class="st0" d="M5735.6,740c0-25.2-0.8-44-2.5-56.4c-3.7-10.3-11.4-19-22.9-26.3l-21.7-12.8c-4.3-4.3-6.4-10.9-6.4-19.9
				c0-8.5,2.1-15.2,6.4-19.9c60.1-16.2,125-40.6,194.7-73c8.7,0,16,3,21.8,8.9c-2.8,49.1-4.1,113-4.1,191.7v585.2
				c-0.9,44,2.4,72.6,9.6,85.9c6.9,13.7,22,20.9,45.4,21.8l23.9,2.6c5.1,4.7,7.7,12.2,7.7,22.4c0,10.7-3.2,18.6-9.6,23.7
				c-44.1-2.6-96-3.8-155.8-3.8c-57.2,0-109.4,1.3-156.5,3.8c-5.1-5.1-7.7-13-7.7-23.7c-0.9-10.2,1.3-17.7,6.4-22.4l24.2-2.6
				c21.1-0.8,34.1-8.1,39.1-21.8c5.4-13.2,8.1-41.9,8.1-85.9V740z"/>
			<path class="st0" d="M6475.4,1290.2c0,44.2,5.8,74.2,17.4,90c12.8,16.7,26.1,24.7,39.7,23.8c13.7,0.9,29.8-4.5,48.4-16.1
				c6.6,1.7,11.2,5.1,13.7,10.2c3.4,6.4,3.8,13,1.2,19.8c-7.5,12.3-24.4,26.3-50.9,42c-26.9,18.2-59,27.8-96.3,28.6
				c-21.1,0-39.8-4.1-55.9-12.2c-17-7.7-34-19-50.9-34c-7.9-6.8-14.7-10.3-20.5-10.3c-6,0-15.2,4.7-27.6,14.1
				c-12.4,9-27.8,17.7-46.1,26.3c-18.4,9.8-40.2,15.2-65.4,16c-39.3,0-73.1-12-101.3-35.9c-29.5-22.7-44.6-56.7-45.5-102
				c-2.1-65,43.4-110.6,136.6-136.7c47.9-15,88.9-27.4,123.1-37.2c11.5-3.4,19.9-7.7,25-12.8c5.1-3.4,7.3-7.9,6.4-13.5
				c1.7-7.7,2.6-15.4,2.6-23.1c0-6.4,0-13.5,0-21.2c0-27.4-5.2-52.9-15.4-76.4c-11.6-23.5-32-35.7-61.1-36.6
				c-15.4,0-29.4,5.1-41.8,15.4c-12.4,11.6-21.2,31.3-26.4,59.2c-1.7,10.7-3.9,19.1-6.4,25.1c-3.4,6.4-8.8,12.2-16.1,17.4
				c-10.3,6.8-25.1,13.5-44.4,19.9c-20.6,6.9-37.3,10.3-50.2,10.3c-20.3-0.9-30.1-11.7-29.2-32.7c0-17.5,6.3-35.8,19-55.1
				c12.2-18.4,26.6-33.7,43.1-46.1c23.2-19.2,53.9-37.1,91.9-53.8c38-16.6,80.1-25.4,126.1-26.3c113.2-1.7,168.6,61.6,166,190.1
				L6475.4,1290.2z M6322.5,1256.1c1.7-10.3,1.7-17.4,0-21.2c-0.9-3.4-4-4.3-9.4-2.6c-31.2,2.6-57.7,10.9-79.5,25.1
				c-23.6,14.2-35.4,36.7-35.4,67.5c0,21.9,7.1,40.3,21.4,55.3c12.9,15.9,29,23.8,48.1,23.8c20.9,0,35.2-6.2,42.8-18.6
				c6.2-10.7,9.4-26.2,9.4-46.3L6322.5,1256.1z"/>
			<path class="st0" d="M6577.3,987.3c-4.7-6-6.4-14.5-5.1-25.3c0-10.4,3-17.3,8.9-20.7c44.7,2.6,100.6,3.8,167.7,3.8
				c47.6,0,95.2-1.3,142.8-3.8c6.6,3.5,10.3,10.4,11.2,20.7c0,10.8-2.5,19.3-7.5,25.3l-25.5,5.8c-17,3.4-27.5,6.8-31.7,10.2
				c-4.6,3.4-6.8,8.1-6.8,14.1c0,7.3,3.9,20.1,11.8,38.4c6.6,19.2,15.5,45.5,26.7,78.8c18.6,51.6,37.7,101.4,57.1,149.2
				c13.7-27.7,26.7-56.6,39.1-86.5l22.9-53.8c14.4-32.5,26-60.8,34.6-85.2c8.3-24.3,12.4-40.1,12.4-47.4c0-5.1-2.5-9.4-7.4-12.8
				c-5.4-2.5-12.2-4.3-20.4-5.1l-25.4-5.8c-4.9-6-7-14.9-6.2-26.6c0-10.4,3.3-16.9,9.9-19.5c26.4,2.6,67.4,3.8,123.1,3.8
				c33,0,65.8-1.3,98.4-3.8c7.2,3.5,11.2,10.4,12.1,20.7c0,11.7-3,20.1-9,25.3l-24.2,2.6c-26.5,3.8-46.1,13.6-58.9,29.4
				c-17.8,26-42.6,71.9-74.4,137.6l-67.6,142.7c-63.3,136.1-127.5,273.6-192.8,412.7c-26.5,57.6-62.8,86.4-109.1,86.4
				c-33.1-0.9-55.2-9.6-66.3-26.1c-10.8-16.6-15.7-34-14.9-52.3c0-20,6.6-36.6,19.8-49.7c12.8-11.9,30.2-17.9,52.1-17.9h31
				c29.3-0.9,50-10,62-27.5c12.8-20.1,25-44.2,36.6-72.4c11.2-18.4,17.2-36.7,18-55.1c0-8.5-1.2-20.3-3.7-35.2
				c-3.3-14.1-10.1-34.2-20.5-60.2l-122.2-317.6c-10.8-31.6-20.9-54.4-30.4-68.5c-10.8-13.7-25.8-21.8-45.3-24.3L6577.3,987.3z"/>
		</g>
	</g>
	<g>
		<circle class="st1" cx="209.2" cy="1334.7" r="204.9"/>
		<circle class="st2" cx="204.9" cy="737.8" r="204.9"/>
		<circle class="st3" cx="929.5" cy="1031.9" r="204.9"/>
		<path class="st4" d="M930,0C790.9,0,685.9,43.9,617.9,130.4C560.9,202.9,529,303,529,428v52c0,107.8-56.4,223-223,223h-52
			c-19.3,0-35,15.7-35,35s15.7,35,35,35h52c88.3,0,159.4-27.6,211.5-80c4.5-4,11.5-0.8,11.5,5c0,60.1,0,379,0,379
			c0,107.8-56.4,223-223,223h-52c-19.3,0-35,15.7-35,35s15.7,35,35,35h52c94.6,0,172.5-31.7,225.4-91.7
			C577,1226.5,605,1155.1,605,1077c0,0,0-64,0-88.3c0-5.2,7-9.7,10.5-5.8C667.7,1036,739.2,1064,828,1064h52c19.3,0,35-15.7,35-35
			s-15.7-35-35-35h-52c-166.6,0-223-115.2-223-223V428c0-108.9,20.9-194.5,67.9-254.4c25.6-32.6,58.7-57.8,98.3-74.9
			C815.3,79.7,868.7,70,930,70c19.3,0,35-15.7,35-35S949.4,0,930,0z"/>
	</g>
</g>
</svg>
