<?xml version="1.0" encoding="utf-8"?>
<!-- Generator: Adobe Illustrator 22.1.0, SVG Export Plug-In . SVG Version: 6.00 Build 0)  -->
<svg version="1.1" id="Layer_1" xmlns="http://www.w3.org/2000/svg" xmlns:xlink="http://www.w3.org/1999/xlink" x="0px" y="0px"
	 viewBox="0 0 447.4 99.6" style="enable-background:new 0 0 447.4 99.6;" xml:space="preserve">
<style type="text/css">
	.st0{fill:#4F1D28;}
</style>
<g>
	<g>
		<path class="st0" d="M23.7,33.3c0,1.3,0.2,2.1,0.5,2.5c0.3,0.5,1,0.7,2.3,0.7h7.6c2.6,0.1,4.4-0.3,5.4-1.1c0.9-0.7,1.6-2.3,2-4.7
			l0.5-2.5c0.4-0.5,1.1-0.7,2-0.7c0.9,0,1.5,0.3,1.8,0.8c-0.2,3.4-0.3,7-0.3,11c0,3.9,0.1,7.5,0.3,10.7c-0.3,0.4-0.9,0.6-1.8,0.6
			c-0.9,0.1-1.5-0.1-2-0.5l-0.5-2.5c-0.4-2.4-1-4-2-4.7c-1-0.7-2.8-1.1-5.4-1.1h-7.6c-1.3,0-2,0.1-2.3,0.4c-0.4,0.4-0.5,1.3-0.5,2.7
			v13.9c-0.1,4.5,0.2,7.5,0.9,8.8c0.6,1.2,2,2,4.1,2.3l3.7,0.5c0.4,0.4,0.6,1,0.6,1.8c0,0.8-0.2,1.5-0.6,1.9
			c-6.1-0.2-11.4-0.3-16.1-0.3c-4.5,0-9.8,0.1-15.8,0.3C0.2,73.6,0,73,0,72.2c0-0.8,0.2-1.4,0.6-1.8l3.3-0.5c2.3-0.3,3.7-1,4.3-2.3
			C8.8,66.3,9,63.4,9,58.9V20.5c0-4.7-0.3-7.7-0.8-9c-0.6-1.3-2-2.1-4.3-2.3L1.9,9C1.5,8.6,1.3,7.9,1.3,7c0-0.8,0.3-1.4,0.8-1.7
			C4.3,5.5,6.6,5.5,9,5.5c2.4,0.1,4.8,0.1,7.2,0.1h21.1c7,0,11.5-0.1,13.5-0.3c0,2.8,0.1,8.1,0.2,16.1c-0.3,0.5-0.8,0.8-1.5,0.8
			c-0.9,0.1-1.6,0-2.3-0.4c-1-4.1-2-6.8-2.9-8.1c-0.8-1.1-2-2-3.5-2.6c-1.5-0.5-3.6-0.8-6.1-0.8H27c-1.5,0-2.4,0.2-2.8,0.5
			c-0.4,0.5-0.6,1.7-0.5,3.7V33.3z"/>
		<path class="st0" d="M76.1,75.2c-6.1,0-11.2-1.8-15.6-5.4c-4.5-3.5-6.7-8.8-6.8-15.9c0.2-7.5,2.5-13.2,7-17.1
			c4.5-3.9,9.8-5.8,16-5.8c6.1,0,11.3,1.8,15.7,5.5c4.3,3.7,6.6,9.2,6.7,16.5c-0.1,7.5-2.3,13.1-6.8,16.6
			C87.9,73.3,82.5,75.2,76.1,75.2z M76.1,35.8c-2.2,0-4.1,1.2-5.6,3.6c-1.6,2.6-2.4,6.7-2.4,12.3c0,5.4,0.8,9.9,2.5,13.3
			c1.5,3.6,3.7,5.4,6.6,5.4c2.9-0.1,4.9-1.6,6-4.6c1-2.9,1.5-6.7,1.5-11.4c-0.1-5.2-0.8-9.6-2.2-13.1c-0.7-1.8-1.5-3.2-2.5-4.1
			C78.9,36.2,77.6,35.8,76.1,35.8z"/>
		<path class="st0" d="M129.3,75.2c-6.1,0-11.2-1.8-15.6-5.4c-4.5-3.5-6.7-8.8-6.8-15.9c0.2-7.5,2.5-13.2,7-17.1
			c4.5-3.9,9.8-5.8,16-5.8c6.1,0,11.3,1.8,15.7,5.5c4.3,3.7,6.6,9.2,6.7,16.5c-0.1,7.5-2.3,13.1-6.8,16.6
			C141.1,73.3,135.7,75.2,129.3,75.2z M129.3,35.8c-2.2,0-4.1,1.2-5.6,3.6c-1.6,2.6-2.4,6.7-2.4,12.3c0,5.4,0.8,9.9,2.5,13.3
			c1.5,3.6,3.7,5.4,6.6,5.4c2.9-0.1,4.9-1.6,6-4.6c1-2.9,1.5-6.7,1.5-11.4c-0.1-5.2-0.8-9.6-2.2-13.1c-0.7-1.8-1.5-3.2-2.5-4.1
			C132.2,36.2,130.9,35.8,129.3,35.8z"/>
		<path class="st0" d="M203.7,56.9c0,4.7,0.2,8,0.6,9.6c0.4,1.7,1,2.5,1.9,2.5c1.6,0,3.2-0.3,4.7-0.8c0.6,0.5,1,1.2,1,2
			c0,1-0.3,1.7-0.8,2.3c-2.5,0.2-4.8,0.4-7,0.7c-2.2,0.4-4.2,0.8-5.8,1.3c-3.5,1-5.4,1.6-5.7,1.6c-0.8-0.1-1.4-0.6-1.8-1.5l0.3-3.2
			c-0.1-0.8-0.4-1.1-0.9-0.8c-1.7,1.1-3.5,2.1-5.3,3c-1.8,0.9-3.6,1.4-5.5,1.5c-5.7-0.1-10.3-2.2-13.7-6.1
			c-3.5-3.8-5.3-8.5-5.4-14.3c0.1-7.4,2.4-13.2,7-17.4c4.5-4.2,10.1-6.3,16.8-6.4c2.5,0,4.4,0.2,5.7,0.5c0.7-0.4,1-1,1-1.9V16.4
			c0-2-0.1-3.5-0.2-4.4c-0.3-0.8-0.9-1.5-1.8-2.1l-1.7-1c-0.3-0.3-0.5-0.9-0.5-1.6c0-0.7,0.2-1.2,0.5-1.6c4.8-1.3,9.9-3.2,15.4-5.7
			c0.7,0,1.3,0.2,1.7,0.7c-0.2,3.9-0.3,8.9-0.3,15.1V56.9z M190.7,43.1c0-1.6-0.2-2.8-0.7-3.5c-1.3-2.4-3.2-3.7-5.7-3.8
			c-2.6,0-4.9,1.3-6.9,4c-2.1,2.7-3.2,6.8-3.2,12.3c0,3.6,0.9,7.2,2.6,10.7c0.9,1.6,2.1,2.9,3.5,3.9c1.4,1.1,3.1,1.6,5.1,1.6
			c1.4,0,2.8-0.4,4.1-1.2c0.6-0.4,0.9-1,1.1-1.7c0.1-0.6,0.1-1.4,0.1-2.3V43.1z"/>
		<path class="st0" d="M223.9,22.4c0.1-5-0.1-8.2-0.6-9.7c-0.5-1.4-1.8-2.2-3.8-2.4l-2.7-0.5c-0.5-0.4-0.7-1.1-0.7-2
			c0-0.8,0.3-1.3,0.9-1.6c7.3-0.6,15.5-0.9,24.8-1c8.8,0.1,15.4,1.3,19.6,3.7c5.9,3.5,8.8,8.6,8.8,15.3c0,2.3-0.3,4.2-0.9,5.9
			c-0.7,1.6-1.6,3.1-2.6,4.3c-1,1.2-2.1,2.2-3.4,3c-1.2,0.9-2.4,1.7-3.7,2.3c-0.9,0.4-1.1,1.2-0.5,2.3c6.1,13.4,11.3,22,15.5,25.8
			c1.3,1,2.6,1.8,3.8,2.2c1.2,0.4,2.1,0.7,2.9,0.8c0.5,0.3,0.7,0.7,0.8,1.2c0,0.6-0.1,1.1-0.4,1.5c-0.9,0.3-2,0.5-3.3,0.6
			c-1.4,0.2-2.9,0.3-4.6,0.3c-8.9,0-15.3-3.6-19.4-10.8c-3.1-5.3-5.7-10.7-7.8-16c-1.1-2.5-2.9-3.7-5.3-3.6c-1.6,0-2.6,0.1-3.1,0.3
			c-0.5,0.3-0.7,1-0.6,2v12.7c-0.1,4.5,0.2,7.4,0.9,8.7c0.7,1.4,2.1,2.2,4.2,2.4l2.7,0.5c0.4,0.3,0.6,0.9,0.6,1.7
			c0,0.9-0.2,1.6-0.6,2c-5.1-0.2-10-0.3-14.7-0.3c-4.7,0-9.6,0.1-14.6,0.3c-0.4-0.4-0.7-1.1-0.7-2c0-0.8,0.2-1.4,0.7-1.7l2.7-0.5
			c2.3-0.2,3.7-1,4.3-2.4c0.5-1.2,0.8-4.1,0.8-8.7V22.4z M237.6,35.5c-0.1,1.6,0.3,2.7,1,3.2c0.7,0.5,2.4,0.8,5.2,0.7
			c1.8,0,3.3-0.3,4.5-0.8c1.2-0.4,2.2-1.1,3.1-2.1c0.9-0.9,1.7-2.3,2.5-4c0.7-1.8,1.1-4.1,1.1-7.1c-0.3-10-4.6-15.1-13.1-15.3
			c-1.9-0.1-3.1,0.2-3.5,0.8c-0.5,0.6-0.8,2.1-0.8,4.5V35.5z"/>
		<path class="st0" d="M297.8,49.3c-1.1,0-1.7,0.1-2,0.2c-0.4,0.3-0.5,0.8-0.5,1.7c0,4,1.2,7.4,3.6,10.4c2.4,3.2,5.9,4.8,10.5,4.9
			c1.5,0.1,3-0.3,4.8-1c1.7-0.7,3.2-2.2,4.5-4.4c0.6-0.1,1.2,0,1.8,0.4c0.6,0.4,0.8,1.1,0.8,2c-2.1,4.3-4.8,7.3-8,9.1
			c-3.2,1.8-6.4,2.7-9.5,2.7c-6.7-0.1-11.8-2.3-15.4-6.4c-3.6-4-5.4-8.9-5.4-14.7c0.1-6.7,2.1-12.2,6.1-16.5
			c3.9-4.3,9.1-6.5,15.4-6.6c5.2,0.1,9.2,1.5,11.9,4.3c2.7,2.9,4.1,6.4,4.1,10.5c0,1-0.2,1.8-0.6,2.4c-0.5,0.7-1.4,1.1-3,1.1H297.8z
			 M304.4,44.8c1.5,0.1,2.9-0.3,4.1-1c0.5-0.4,0.7-1.2,0.7-2.4c0-1.8-0.4-3.2-1.3-4.2c-0.9-1-2.2-1.5-4-1.5
			c-2.2,0.1-4.1,0.9-5.6,2.5c-1.6,1.5-2.5,3.2-2.5,4.9c0,0.7,0.4,1.1,1.2,1.2c0.7,0.2,1.9,0.4,3.5,0.4H304.4z"/>
		<path class="st0" d="M330.7,16.4c0-2-0.1-3.5-0.2-4.4c-0.3-0.8-0.9-1.5-1.8-2.1l-1.7-1c-0.3-0.3-0.5-0.9-0.5-1.6
			c0-0.7,0.2-1.2,0.5-1.6c4.7-1.3,9.8-3.2,15.3-5.7c0.7,0,1.3,0.2,1.7,0.7c-0.2,3.9-0.3,8.9-0.3,15.1v46c-0.1,3.5,0.2,5.7,0.8,6.8
			c0.5,1.1,1.7,1.6,3.6,1.7l1.9,0.2c0.4,0.4,0.6,1,0.6,1.8c0,0.8-0.3,1.5-0.8,1.9c-3.5-0.2-7.5-0.3-12.2-0.3
			c-4.5,0-8.6,0.1-12.3,0.3c-0.4-0.4-0.6-1-0.6-1.9c-0.1-0.8,0.1-1.4,0.5-1.8l1.9-0.2c1.7-0.1,2.7-0.6,3.1-1.7
			c0.4-1,0.6-3.3,0.6-6.8V16.4z"/>
		<path class="st0" d="M388.8,59.6c0,3.5,0.5,5.8,1.4,7.1c1,1.3,2.1,1.9,3.1,1.9c1.1,0.1,2.3-0.4,3.8-1.3c0.5,0.1,0.9,0.4,1.1,0.8
			c0.3,0.5,0.3,1,0.1,1.6c-0.6,1-1.9,2.1-4,3.3c-2.1,1.4-4.6,2.2-7.6,2.3c-1.7,0-3.1-0.3-4.4-1c-1.3-0.6-2.7-1.5-4-2.7
			c-0.6-0.5-1.2-0.8-1.6-0.8c-0.5,0-1.2,0.4-2.2,1.1c-1,0.7-2.2,1.4-3.6,2.1c-1.4,0.8-3.2,1.2-5.1,1.3c-3.1,0-5.7-0.9-8-2.8
			c-2.3-1.8-3.5-4.5-3.6-8c-0.2-5.1,3.4-8.7,10.7-10.7c3.8-1.2,7-2.2,9.7-2.9c0.9-0.3,1.6-0.6,2-1c0.4-0.3,0.6-0.6,0.5-1.1
			c0.1-0.6,0.2-1.2,0.2-1.8c0-0.5,0-1.1,0-1.7c0-2.2-0.4-4.2-1.2-6c-0.9-1.9-2.5-2.8-4.8-2.9c-1.2,0-2.3,0.4-3.3,1.2
			c-1,0.9-1.7,2.5-2.1,4.7c-0.1,0.8-0.3,1.5-0.5,2c-0.3,0.5-0.7,1-1.3,1.4c-0.8,0.5-2,1.1-3.5,1.6c-1.6,0.5-2.9,0.8-3.9,0.8
			c-1.6-0.1-2.4-0.9-2.3-2.6c0-1.4,0.5-2.8,1.5-4.3c1-1.4,2.1-2.7,3.4-3.6c1.8-1.5,4.2-2.9,7.2-4.2c3-1.3,6.3-2,9.9-2.1
			c8.9-0.1,13.3,4.8,13,14.9L388.8,59.6z M376.8,56.9c0.1-0.8,0.1-1.4,0-1.7c-0.1-0.3-0.3-0.3-0.7-0.2c-2.5,0.2-4.5,0.9-6.2,2
			c-1.9,1.1-2.8,2.9-2.8,5.3c0,1.7,0.6,3.2,1.7,4.3c1,1.2,2.3,1.9,3.8,1.9c1.6,0,2.8-0.5,3.4-1.5c0.5-0.8,0.7-2.1,0.7-3.6
			L376.8,56.9z"/>
		<path class="st0" d="M396.9,35.8c-0.4-0.5-0.5-1.1-0.4-2c0-0.8,0.2-1.4,0.7-1.6c3.5,0.2,7.9,0.3,13.2,0.3c3.7,0,7.5-0.1,11.2-0.3
			c0.5,0.3,0.8,0.8,0.9,1.6c0,0.8-0.2,1.5-0.6,2l-2,0.5c-1.3,0.3-2.2,0.5-2.5,0.8c-0.4,0.3-0.5,0.6-0.5,1.1c0,0.6,0.3,1.6,0.9,3
			c0.5,1.5,1.2,3.6,2.1,6.2c1.5,4.1,3,8,4.5,11.7c1.1-2.2,2.1-4.4,3.1-6.8l1.8-4.2c1.1-2.6,2-4.8,2.7-6.7c0.6-1.9,1-3.2,1-3.7
			c0-0.4-0.2-0.7-0.6-1c-0.4-0.2-1-0.3-1.6-0.4l-2-0.5c-0.4-0.5-0.6-1.2-0.5-2.1c0-0.8,0.3-1.3,0.8-1.5c2.1,0.2,5.3,0.3,9.7,0.3
			c2.6,0,5.2-0.1,7.7-0.3c0.6,0.3,0.9,0.8,0.9,1.6c0,0.9-0.2,1.6-0.7,2l-1.9,0.2c-2.1,0.3-3.6,1.1-4.6,2.3c-1.4,2-3.3,5.7-5.8,10.8
			L429,60.4c-5,10.7-10,21.5-15.2,32.4c-2.1,4.5-4.9,6.8-8.6,6.8c-2.6-0.1-4.3-0.8-5.2-2.1c-0.8-1.3-1.2-2.7-1.2-4.1
			c0-1.6,0.5-2.9,1.6-3.9c1-0.9,2.4-1.4,4.1-1.4h2.4c2.3-0.1,3.9-0.8,4.9-2.2c1-1.6,2-3.5,2.9-5.7c0.9-1.4,1.3-2.9,1.4-4.3
			c0-0.7-0.1-1.6-0.3-2.8c-0.3-1.1-0.8-2.7-1.6-4.7l-9.6-25c-0.8-2.5-1.6-4.3-2.4-5.4c-0.8-1.1-2-1.7-3.6-1.9L396.9,35.8z"/>
	</g>
</g>
</svg>
